<mxfile host="app.diagrams.net" modified="2023-11-27T19:25:58.888Z" agent="Mozilla/5.0 (Windows NT 10.0; Win64; x64) AppleWebKit/537.36 (KHTML, like Gecko) Chrome/119.0.0.0 Safari/537.36" etag="fFXDSNH4iTJ2Bo-4Igrp" version="22.1.4" type="github">
  <diagram name="Сторінка-1" id="-p-uBfUL3f9nSTSAjh3T">
    <mxGraphModel dx="1820" dy="996" grid="0" gridSize="10" guides="1" tooltips="1" connect="1" arrows="1" fold="1" page="1" pageScale="1" pageWidth="827" pageHeight="1169" math="0" shadow="0">
      <root>
        <mxCell id="0" />
        <mxCell id="1" parent="0" />
        <mxCell id="gpMrWk8lEUjU7Uh3eYA1-1" style="edgeStyle=orthogonalEdgeStyle;rounded=0;orthogonalLoop=1;jettySize=auto;html=1;exitX=0.5;exitY=1;exitDx=0;exitDy=0;entryX=0.5;entryY=0;entryDx=0;entryDy=0;" edge="1" parent="1" source="gpMrWk8lEUjU7Uh3eYA1-2" target="gpMrWk8lEUjU7Uh3eYA1-4">
          <mxGeometry relative="1" as="geometry" />
        </mxCell>
        <mxCell id="gpMrWk8lEUjU7Uh3eYA1-2" value="&lt;b&gt;&lt;font style=&quot;font-size: 14px;&quot;&gt;Start&lt;/font&gt;&lt;/b&gt;" style="ellipse;whiteSpace=wrap;html=1;fillColor=#fff2cc;strokeColor=#d6b656;" vertex="1" parent="1">
          <mxGeometry x="310" y="40" width="130" height="60" as="geometry" />
        </mxCell>
        <mxCell id="gpMrWk8lEUjU7Uh3eYA1-3" style="edgeStyle=orthogonalEdgeStyle;rounded=0;orthogonalLoop=1;jettySize=auto;html=1;exitX=0.5;exitY=1;exitDx=0;exitDy=0;entryX=0.5;entryY=0;entryDx=0;entryDy=0;" edge="1" parent="1" source="gpMrWk8lEUjU7Uh3eYA1-4" target="gpMrWk8lEUjU7Uh3eYA1-7">
          <mxGeometry relative="1" as="geometry" />
        </mxCell>
        <mxCell id="gpMrWk8lEUjU7Uh3eYA1-4" value="&lt;b&gt;Read x, epsylon&lt;/b&gt;" style="rounded=0;whiteSpace=wrap;html=1;fillColor=#d5e8d4;strokeColor=#82b366;" vertex="1" parent="1">
          <mxGeometry x="310" y="120" width="130" height="50" as="geometry" />
        </mxCell>
        <mxCell id="gpMrWk8lEUjU7Uh3eYA1-27" style="edgeStyle=orthogonalEdgeStyle;rounded=0;orthogonalLoop=1;jettySize=auto;html=1;exitX=0;exitY=0.5;exitDx=0;exitDy=0;entryX=0;entryY=0.5;entryDx=0;entryDy=0;" edge="1" parent="1" source="gpMrWk8lEUjU7Uh3eYA1-7" target="gpMrWk8lEUjU7Uh3eYA1-11">
          <mxGeometry relative="1" as="geometry">
            <Array as="points">
              <mxPoint x="150" y="225" />
              <mxPoint x="150" y="1050" />
            </Array>
          </mxGeometry>
        </mxCell>
        <mxCell id="gpMrWk8lEUjU7Uh3eYA1-31" style="edgeStyle=orthogonalEdgeStyle;rounded=0;orthogonalLoop=1;jettySize=auto;html=1;exitX=0.5;exitY=1;exitDx=0;exitDy=0;entryX=0.5;entryY=0;entryDx=0;entryDy=0;" edge="1" parent="1" source="gpMrWk8lEUjU7Uh3eYA1-7" target="gpMrWk8lEUjU7Uh3eYA1-14">
          <mxGeometry relative="1" as="geometry" />
        </mxCell>
        <mxCell id="gpMrWk8lEUjU7Uh3eYA1-7" value="&lt;b&gt;x&amp;lt;1?&lt;/b&gt;" style="rhombus;whiteSpace=wrap;html=1;fillColor=#ffe6cc;strokeColor=#d79b00;" vertex="1" parent="1">
          <mxGeometry x="325" y="190" width="100" height="70" as="geometry" />
        </mxCell>
        <mxCell id="gpMrWk8lEUjU7Uh3eYA1-11" value="&lt;b&gt;&lt;font style=&quot;font-size: 14px;&quot;&gt;Finish&lt;/font&gt;&lt;/b&gt;" style="ellipse;whiteSpace=wrap;html=1;fillColor=#fff2cc;strokeColor=#d6b656;" vertex="1" parent="1">
          <mxGeometry x="315" y="1020" width="130" height="60" as="geometry" />
        </mxCell>
        <mxCell id="gpMrWk8lEUjU7Uh3eYA1-33" style="edgeStyle=orthogonalEdgeStyle;rounded=0;orthogonalLoop=1;jettySize=auto;html=1;entryX=0.5;entryY=0;entryDx=0;entryDy=0;" edge="1" parent="1" source="gpMrWk8lEUjU7Uh3eYA1-14" target="gpMrWk8lEUjU7Uh3eYA1-16">
          <mxGeometry relative="1" as="geometry" />
        </mxCell>
        <mxCell id="gpMrWk8lEUjU7Uh3eYA1-14" value="&lt;b&gt;SN=0;&lt;br&gt;n1=1;&lt;br&gt;an=(x-1)/(x+1);&lt;/b&gt;" style="rounded=0;whiteSpace=wrap;html=1;fillColor=#d5e8d4;strokeColor=#82b366;" vertex="1" parent="1">
          <mxGeometry x="310" y="290" width="130" height="50" as="geometry" />
        </mxCell>
        <mxCell id="gpMrWk8lEUjU7Uh3eYA1-44" style="edgeStyle=orthogonalEdgeStyle;rounded=0;orthogonalLoop=1;jettySize=auto;html=1;exitX=0;exitY=0.5;exitDx=0;exitDy=0;entryX=0;entryY=0.5;entryDx=0;entryDy=0;" edge="1" parent="1" source="gpMrWk8lEUjU7Uh3eYA1-16" target="gpMrWk8lEUjU7Uh3eYA1-19">
          <mxGeometry relative="1" as="geometry">
            <mxPoint x="270" y="560" as="targetPoint" />
            <Array as="points">
              <mxPoint x="230" y="405" />
              <mxPoint x="230" y="560" />
            </Array>
          </mxGeometry>
        </mxCell>
        <mxCell id="gpMrWk8lEUjU7Uh3eYA1-16" value="&lt;b&gt;n1&amp;lt;=10?&lt;/b&gt;" style="rhombus;whiteSpace=wrap;html=1;fillColor=#ffe6cc;strokeColor=#d79b00;" vertex="1" parent="1">
          <mxGeometry x="325" y="370" width="100" height="70" as="geometry" />
        </mxCell>
        <mxCell id="gpMrWk8lEUjU7Uh3eYA1-17" value="&lt;font style=&quot;font-size: 9px;&quot;&gt;&lt;b&gt;an=an*((2*n1+1)/(2*n1+3))*pow(((x-1)/(x+1)),2);&lt;br style=&quot;&quot;&gt;SN=SN+an;&lt;br&gt;n1++;&lt;/b&gt;&lt;/font&gt;" style="rounded=0;whiteSpace=wrap;html=1;fillColor=#d5e8d4;strokeColor=#82b366;" vertex="1" parent="1">
          <mxGeometry x="280" y="460" width="200" height="50" as="geometry" />
        </mxCell>
        <mxCell id="gpMrWk8lEUjU7Uh3eYA1-47" style="edgeStyle=orthogonalEdgeStyle;rounded=0;orthogonalLoop=1;jettySize=auto;html=1;exitX=0.5;exitY=1;exitDx=0;exitDy=0;entryX=0.5;entryY=0;entryDx=0;entryDy=0;" edge="1" parent="1" source="gpMrWk8lEUjU7Uh3eYA1-19" target="gpMrWk8lEUjU7Uh3eYA1-20">
          <mxGeometry relative="1" as="geometry" />
        </mxCell>
        <mxCell id="gpMrWk8lEUjU7Uh3eYA1-19" value="&lt;font size=&quot;1&quot;&gt;&lt;b&gt;SE=0;&lt;br&gt;n=1;&lt;br&gt;an1=(x-1)/(x+1);&lt;/b&gt;&lt;/font&gt;" style="rounded=0;whiteSpace=wrap;html=1;fillColor=#d5e8d4;strokeColor=#82b366;" vertex="1" parent="1">
          <mxGeometry x="280" y="535" width="200" height="50" as="geometry" />
        </mxCell>
        <mxCell id="gpMrWk8lEUjU7Uh3eYA1-49" style="edgeStyle=orthogonalEdgeStyle;rounded=0;orthogonalLoop=1;jettySize=auto;html=1;exitX=0;exitY=0.5;exitDx=0;exitDy=0;entryX=0;entryY=0.5;entryDx=0;entryDy=0;" edge="1" parent="1" source="gpMrWk8lEUjU7Uh3eYA1-20" target="gpMrWk8lEUjU7Uh3eYA1-22">
          <mxGeometry relative="1" as="geometry">
            <mxPoint x="250" y="820" as="targetPoint" />
            <Array as="points">
              <mxPoint x="230" y="645" />
              <mxPoint x="230" y="805" />
            </Array>
          </mxGeometry>
        </mxCell>
        <mxCell id="gpMrWk8lEUjU7Uh3eYA1-20" value="&lt;b style=&quot;font-size: 11px;&quot;&gt;abs(an1)&amp;gt;=epsylon&lt;/b&gt;" style="rhombus;whiteSpace=wrap;html=1;fillColor=#ffe6cc;strokeColor=#d79b00;" vertex="1" parent="1">
          <mxGeometry x="325" y="610" width="100" height="70" as="geometry" />
        </mxCell>
        <mxCell id="gpMrWk8lEUjU7Uh3eYA1-21" value="&lt;font style=&quot;font-size: 9px;&quot;&gt;&lt;b&gt;an1=an1*((2*n+1)/(2*n+3))*pow(((x-1)/(x+1)),2);&lt;br&gt;SE=SE+an1;&lt;br&gt;n++;&lt;/b&gt;&lt;/font&gt;" style="rounded=0;whiteSpace=wrap;html=1;fillColor=#d5e8d4;strokeColor=#82b366;" vertex="1" parent="1">
          <mxGeometry x="280" y="710" width="200" height="50" as="geometry" />
        </mxCell>
        <mxCell id="gpMrWk8lEUjU7Uh3eYA1-52" style="edgeStyle=orthogonalEdgeStyle;rounded=0;orthogonalLoop=1;jettySize=auto;html=1;exitX=0.5;exitY=1;exitDx=0;exitDy=0;entryX=0.5;entryY=0;entryDx=0;entryDy=0;" edge="1" parent="1" source="gpMrWk8lEUjU7Uh3eYA1-22" target="gpMrWk8lEUjU7Uh3eYA1-23">
          <mxGeometry relative="1" as="geometry" />
        </mxCell>
        <mxCell id="gpMrWk8lEUjU7Uh3eYA1-22" value="&lt;font size=&quot;1&quot;&gt;&lt;b&gt;Y=0.5*log(x)&lt;/b&gt;&lt;/font&gt;" style="rounded=0;whiteSpace=wrap;html=1;fillColor=#d5e8d4;strokeColor=#82b366;" vertex="1" parent="1">
          <mxGeometry x="280" y="780" width="200" height="50" as="geometry" />
        </mxCell>
        <mxCell id="gpMrWk8lEUjU7Uh3eYA1-53" style="edgeStyle=orthogonalEdgeStyle;rounded=0;orthogonalLoop=1;jettySize=auto;html=1;exitX=0.5;exitY=1;exitDx=0;exitDy=0;" edge="1" parent="1" source="gpMrWk8lEUjU7Uh3eYA1-23" target="gpMrWk8lEUjU7Uh3eYA1-24">
          <mxGeometry relative="1" as="geometry" />
        </mxCell>
        <mxCell id="gpMrWk8lEUjU7Uh3eYA1-23" value="x=(x)&lt;br&gt;SN=(SN)&lt;br&gt;&amp;nbsp;SE=(SE)&lt;br&gt;Y=(Y)" style="shape=parallelogram;perimeter=parallelogramPerimeter;whiteSpace=wrap;html=1;fixedSize=1;fillColor=#dae8fc;strokeColor=#6c8ebf;" vertex="1" parent="1">
          <mxGeometry x="285" y="860" width="190" height="60" as="geometry" />
        </mxCell>
        <mxCell id="gpMrWk8lEUjU7Uh3eYA1-24" value="&lt;font size=&quot;1&quot;&gt;&lt;b&gt;x=x+0.08&lt;/b&gt;&lt;/font&gt;" style="rounded=0;whiteSpace=wrap;html=1;fillColor=#d5e8d4;strokeColor=#82b366;" vertex="1" parent="1">
          <mxGeometry x="280" y="950" width="200" height="50" as="geometry" />
        </mxCell>
        <mxCell id="gpMrWk8lEUjU7Uh3eYA1-28" value="YES" style="text;html=1;strokeColor=none;fillColor=none;align=center;verticalAlign=middle;whiteSpace=wrap;rounded=0;" vertex="1" parent="1">
          <mxGeometry x="365" y="260" width="60" height="30" as="geometry" />
        </mxCell>
        <mxCell id="gpMrWk8lEUjU7Uh3eYA1-29" value="NO" style="text;html=1;strokeColor=none;fillColor=none;align=center;verticalAlign=middle;whiteSpace=wrap;rounded=0;" vertex="1" parent="1">
          <mxGeometry x="100" y="640" width="60" height="30" as="geometry" />
        </mxCell>
        <mxCell id="gpMrWk8lEUjU7Uh3eYA1-34" style="edgeStyle=orthogonalEdgeStyle;rounded=0;orthogonalLoop=1;jettySize=auto;html=1;exitX=0.5;exitY=1;exitDx=0;exitDy=0;entryX=0.478;entryY=0.054;entryDx=0;entryDy=0;entryPerimeter=0;" edge="1" parent="1" source="gpMrWk8lEUjU7Uh3eYA1-16" target="gpMrWk8lEUjU7Uh3eYA1-17">
          <mxGeometry relative="1" as="geometry" />
        </mxCell>
        <mxCell id="gpMrWk8lEUjU7Uh3eYA1-35" value="YES" style="text;html=1;strokeColor=none;fillColor=none;align=center;verticalAlign=middle;whiteSpace=wrap;rounded=0;" vertex="1" parent="1">
          <mxGeometry x="365" y="430" width="60" height="30" as="geometry" />
        </mxCell>
        <mxCell id="gpMrWk8lEUjU7Uh3eYA1-46" value="NO" style="text;html=1;strokeColor=none;fillColor=none;align=center;verticalAlign=middle;whiteSpace=wrap;rounded=0;" vertex="1" parent="1">
          <mxGeometry x="190" y="470" width="60" height="30" as="geometry" />
        </mxCell>
        <mxCell id="gpMrWk8lEUjU7Uh3eYA1-48" style="edgeStyle=orthogonalEdgeStyle;rounded=0;orthogonalLoop=1;jettySize=auto;html=1;exitX=0.5;exitY=1;exitDx=0;exitDy=0;entryX=0.465;entryY=-0.002;entryDx=0;entryDy=0;entryPerimeter=0;" edge="1" parent="1" source="gpMrWk8lEUjU7Uh3eYA1-20" target="gpMrWk8lEUjU7Uh3eYA1-21">
          <mxGeometry relative="1" as="geometry" />
        </mxCell>
        <mxCell id="gpMrWk8lEUjU7Uh3eYA1-50" value="NO" style="text;html=1;strokeColor=none;fillColor=none;align=center;verticalAlign=middle;whiteSpace=wrap;rounded=0;" vertex="1" parent="1">
          <mxGeometry x="190" y="720" width="60" height="30" as="geometry" />
        </mxCell>
        <mxCell id="gpMrWk8lEUjU7Uh3eYA1-51" value="YES" style="text;html=1;strokeColor=none;fillColor=none;align=center;verticalAlign=middle;whiteSpace=wrap;rounded=0;" vertex="1" parent="1">
          <mxGeometry x="360" y="680" width="60" height="30" as="geometry" />
        </mxCell>
      </root>
    </mxGraphModel>
  </diagram>
</mxfile>
